<svg width="16" height="16" viewBox="0 0 16 16" fill="none" xmlns="http://www.w3.org/2000/svg">
<path d="M12.6667 11.3334H14C14.4 11.3334 14.6667 11.0667 14.6667 10.6667V8.66669C14.6667 8.06669 14.2 7.53335 13.6667 7.40002C12.4667 7.06669 10.6667 6.66669 10.6667 6.66669C10.6667 6.66669 9.80004 5.73335 9.20004 5.13335C8.86671 4.86669 8.46671 4.66669 8.00004 4.66669H3.33337C2.93337 4.66669 2.60004 4.93335 2.40004 5.26669L1.46671 7.20002C1.37843 7.4575 1.33337 7.72782 1.33337 8.00002V10.6667C1.33337 11.0667 1.60004 11.3334 2.00004 11.3334H3.33337" stroke="#101828" stroke-linecap="round" stroke-linejoin="round"/>
<path d="M4.66671 12.6667C5.40309 12.6667 6.00004 12.0697 6.00004 11.3333C6.00004 10.597 5.40309 10 4.66671 10C3.93033 10 3.33337 10.597 3.33337 11.3333C3.33337 12.0697 3.93033 12.6667 4.66671 12.6667Z" stroke="#101828" stroke-linecap="round" stroke-linejoin="round"/>
<path d="M6 11.3333H10" stroke="#101828" stroke-linecap="round" stroke-linejoin="round"/>
<path d="M11.3333 12.6667C12.0697 12.6667 12.6667 12.0697 12.6667 11.3333C12.6667 10.597 12.0697 10 11.3333 10C10.597 10 10 10.597 10 11.3333C10 12.0697 10.597 12.6667 11.3333 12.6667Z" stroke="#101828" stroke-linecap="round" stroke-linejoin="round"/>
</svg>
