<svg width="16" height="16" viewBox="0 0 16 16" fill="none" xmlns="http://www.w3.org/2000/svg">
<path d="M4.00008 14.6666C3.64646 14.6666 3.30732 14.5261 3.05727 14.2761C2.80722 14.026 2.66675 13.6869 2.66675 13.3333V2.66659C2.66675 2.31297 2.80722 1.97383 3.05727 1.72378C3.30732 1.47373 3.64646 1.33325 4.00008 1.33325H9.33341C9.54445 1.33291 9.75347 1.37432 9.94843 1.4551C10.1434 1.53588 10.3205 1.65443 10.4694 1.80392L12.8614 4.19592C13.0113 4.34493 13.1302 4.52215 13.2112 4.71736C13.2922 4.91257 13.3338 5.1219 13.3334 5.33325V13.3333C13.3334 13.6869 13.1929 14.026 12.9429 14.2761C12.6928 14.5261 12.3537 14.6666 12.0001 14.6666H4.00008Z" stroke="#101828" stroke-linecap="round" stroke-linejoin="round"/>
<path d="M9.33325 1.33325V4.66659C9.33325 4.8434 9.40349 5.01297 9.52851 5.13799C9.65354 5.26301 9.82311 5.33325 9.99992 5.33325H13.3333" stroke="#101828" stroke-linecap="round" stroke-linejoin="round"/>
<path d="M6.66659 6H5.33325" stroke="#101828" stroke-linecap="round" stroke-linejoin="round"/>
<path d="M10.6666 8.66675H5.33325" stroke="#101828" stroke-linecap="round" stroke-linejoin="round"/>
<path d="M10.6666 11.3333H5.33325" stroke="#101828" stroke-linecap="round" stroke-linejoin="round"/>
</svg>
