<svg width="16" height="16" viewBox="0 0 16 16" fill="none" xmlns="http://www.w3.org/2000/svg">
<path d="M10 1.33325H7.33333C6.97971 1.33325 6.64057 1.47373 6.39052 1.72378C6.14048 1.97382 6 2.31296 6 2.66659V9.99992C6 10.3535 6.14048 10.6927 6.39052 10.9427C6.64057 11.1928 6.97971 11.3333 7.33333 11.3333H12.6667C13.0203 11.3333 13.3594 11.1928 13.6095 10.9427C13.8595 10.6927 14 10.3535 14 9.99992V5.33325" stroke="#101828" stroke-linecap="round" stroke-linejoin="round"/>
<path d="M11.1373 1.80392C10.9882 1.65427 10.8109 1.53563 10.6157 1.45485C10.4205 1.37406 10.2113 1.33274 10 1.33326V4.66659C10 4.8434 10.0702 5.01297 10.1953 5.13799C10.3203 5.26302 10.4899 5.33326 10.6667 5.33326H14C14.0005 5.122 13.9592 4.91273 13.8784 4.71752C13.7976 4.52231 13.679 4.34504 13.5293 4.19592L11.1373 1.80392Z" stroke="#101828" stroke-linecap="round" stroke-linejoin="round"/>
<path d="M3.33333 4.66675C2.97971 4.66675 2.64057 4.80722 2.39052 5.05727C2.14048 5.30732 2 5.64646 2 6.00008V13.3334C2 13.687 2.14048 14.0262 2.39052 14.2762C2.64057 14.5263 2.97971 14.6667 3.33333 14.6667H8.66667C8.90071 14.6667 9.13063 14.6051 9.33331 14.4881C9.536 14.3711 9.70431 14.2028 9.82133 14.0001" stroke="#101828" stroke-linecap="round" stroke-linejoin="round"/>
</svg>
