<svg width="16" height="16" viewBox="0 0 16 16" fill="none" xmlns="http://www.w3.org/2000/svg">
<path d="M12 14C12 12.9391 11.5786 11.9217 10.8284 11.1716C10.0783 10.4214 9.06087 10 8 10C6.93913 10 5.92172 10.4214 5.17157 11.1716C4.42143 11.9217 4 12.9391 4 14" stroke="#101828" stroke-linecap="round" stroke-linejoin="round"/>
<path d="M7.99992 10.0001C9.47268 10.0001 10.6666 8.80617 10.6666 7.33341C10.6666 5.86066 9.47268 4.66675 7.99992 4.66675C6.52716 4.66675 5.33325 5.86066 5.33325 7.33341C5.33325 8.80617 6.52716 10.0001 7.99992 10.0001Z" stroke="#101828" stroke-linecap="round" stroke-linejoin="round"/>
<path d="M12.6667 2H3.33333C2.59695 2 2 2.59695 2 3.33333V12.6667C2 13.403 2.59695 14 3.33333 14H12.6667C13.403 14 14 13.403 14 12.6667V3.33333C14 2.59695 13.403 2 12.6667 2Z" stroke="#101828" stroke-linecap="round" stroke-linejoin="round"/>
</svg>
