<svg width="16" height="16" viewBox="0 0 16 16" fill="none" xmlns="http://www.w3.org/2000/svg">
<g clip-path="url(#clip0_6_7569)">
<path d="M7.33341 6.84668L4.66675 2.22668" stroke="#101828" stroke-linecap="round" stroke-linejoin="round"/>
<path d="M7.33341 9.15332L4.66675 13.7733" stroke="#101828" stroke-linecap="round" stroke-linejoin="round"/>
<path d="M8 14.6666V13.3333" stroke="#101828" stroke-linecap="round" stroke-linejoin="round"/>
<path d="M8 1.33331V2.66665" stroke="#101828" stroke-linecap="round" stroke-linejoin="round"/>
<path d="M9.33325 8H14.6666" stroke="#101828" stroke-linecap="round" stroke-linejoin="round"/>
<path d="M11.3334 13.7733L10.6667 12.62" stroke="#101828" stroke-linecap="round" stroke-linejoin="round"/>
<path d="M11.3334 2.22668L10.6667 3.38002" stroke="#101828" stroke-linecap="round" stroke-linejoin="round"/>
<path d="M1.33337 8H2.66671" stroke="#101828" stroke-linecap="round" stroke-linejoin="round"/>
<path d="M13.7735 11.3334L12.6201 10.6667" stroke="#101828" stroke-linecap="round" stroke-linejoin="round"/>
<path d="M13.7735 4.66669L12.6201 5.33335" stroke="#101828" stroke-linecap="round" stroke-linejoin="round"/>
<path d="M2.22668 11.3334L3.38002 10.6667" stroke="#101828" stroke-linecap="round" stroke-linejoin="round"/>
<path d="M2.22668 4.66669L3.38002 5.33335" stroke="#101828" stroke-linecap="round" stroke-linejoin="round"/>
<path d="M8.00008 9.33335C8.73646 9.33335 9.33341 8.7364 9.33341 8.00002C9.33341 7.26364 8.73646 6.66669 8.00008 6.66669C7.2637 6.66669 6.66675 7.26364 6.66675 8.00002C6.66675 8.7364 7.2637 9.33335 8.00008 9.33335Z" stroke="#101828" stroke-linecap="round" stroke-linejoin="round"/>
<path d="M7.99996 13.3334C10.9455 13.3334 13.3333 10.9455 13.3333 8.00002C13.3333 5.0545 10.9455 2.66669 7.99996 2.66669C5.05444 2.66669 2.66663 5.0545 2.66663 8.00002C2.66663 10.9455 5.05444 13.3334 7.99996 13.3334Z" stroke="#101828" stroke-linecap="round" stroke-linejoin="round"/>
</g>
<defs>
<clipPath id="clip0_6_7569">
<rect width="16" height="16" fill="white"/>
</clipPath>
</defs>
</svg>
