<svg width="16" height="16" viewBox="0 0 16 16" fill="none" xmlns="http://www.w3.org/2000/svg">
<path d="M8 6.66663H8.00667" stroke="#101828" stroke-linecap="round" stroke-linejoin="round"/>
<path d="M8 9.33337H8.00667" stroke="#101828" stroke-linecap="round" stroke-linejoin="round"/>
<path d="M8 4H8.00667" stroke="#101828" stroke-linecap="round" stroke-linejoin="round"/>
<path d="M10.6667 6.66663H10.6734" stroke="#101828" stroke-linecap="round" stroke-linejoin="round"/>
<path d="M10.6667 9.33337H10.6734" stroke="#101828" stroke-linecap="round" stroke-linejoin="round"/>
<path d="M10.6667 4H10.6734" stroke="#101828" stroke-linecap="round" stroke-linejoin="round"/>
<path d="M5.33325 6.66663H5.33992" stroke="#101828" stroke-linecap="round" stroke-linejoin="round"/>
<path d="M5.33325 9.33337H5.33992" stroke="#101828" stroke-linecap="round" stroke-linejoin="round"/>
<path d="M5.33325 4H5.33992" stroke="#101828" stroke-linecap="round" stroke-linejoin="round"/>
<path d="M6 14.6667V12.6667C6 12.4899 6.07024 12.3203 6.19526 12.1953C6.32029 12.0702 6.48986 12 6.66667 12H9.33333C9.51014 12 9.67971 12.0702 9.80474 12.1953C9.92976 12.3203 10 12.4899 10 12.6667V14.6667" stroke="#101828" stroke-linecap="round" stroke-linejoin="round"/>
<path d="M12.0001 1.33337H4.00008C3.2637 1.33337 2.66675 1.93033 2.66675 2.66671V13.3334C2.66675 14.0698 3.2637 14.6667 4.00008 14.6667H12.0001C12.7365 14.6667 13.3334 14.0698 13.3334 13.3334V2.66671C13.3334 1.93033 12.7365 1.33337 12.0001 1.33337Z" stroke="#101828" stroke-linecap="round" stroke-linejoin="round"/>
</svg>
