<svg width="12" height="12" viewBox="0 0 12 12" fill="none" xmlns="http://www.w3.org/2000/svg">
<g clip-path="url(#clip0_6_7557)">
<path d="M6 11C4.67392 11 3.40215 10.4732 2.46447 9.53553C1.52678 8.59785 1 7.32608 1 6C1 4.67392 1.52678 3.40215 2.46447 2.46447C3.40215 1.52678 4.67392 1 6 1C7.32608 1 8.59785 1.47411 9.53553 2.31802C10.4732 3.16193 11 4.30653 11 5.5C11 6.16304 10.7366 6.79893 10.2678 7.26777C9.79893 7.73661 9.16304 8 8.5 8H7.375C7.2125 8 7.05321 8.04525 6.91499 8.13068C6.77676 8.21611 6.66505 8.33835 6.59238 8.48369C6.5197 8.62903 6.48894 8.79174 6.50354 8.95358C6.51813 9.11542 6.5775 9.27 6.675 9.4L6.825 9.6C6.9225 9.73 6.98187 9.88458 6.99646 10.0464C7.01106 10.2083 6.9803 10.371 6.90762 10.5163C6.83495 10.6617 6.72324 10.7839 6.58501 10.8693C6.44679 10.9548 6.2875 11 6.125 11H6Z" stroke="#126DB7" stroke-width="1.33333" stroke-linecap="round" stroke-linejoin="round"/>
<path d="M6.75 3.5C6.88807 3.5 7 3.38807 7 3.25C7 3.11193 6.88807 3 6.75 3C6.61193 3 6.5 3.11193 6.5 3.25C6.5 3.38807 6.61193 3.5 6.75 3.5Z" fill="#126DB7" stroke="#126DB7" stroke-width="1.33333" stroke-linecap="round" stroke-linejoin="round"/>
<path d="M8.75 5.5C8.88807 5.5 9 5.38807 9 5.25C9 5.11193 8.88807 5 8.75 5C8.61193 5 8.5 5.11193 8.5 5.25C8.5 5.38807 8.61193 5.5 8.75 5.5Z" fill="#126DB7" stroke="#126DB7" stroke-width="1.33333" stroke-linecap="round" stroke-linejoin="round"/>
<path d="M3.25 6.5C3.38807 6.5 3.5 6.38807 3.5 6.25C3.5 6.11193 3.38807 6 3.25 6C3.11193 6 3 6.11193 3 6.25C3 6.38807 3.11193 6.5 3.25 6.5Z" fill="#126DB7" stroke="#126DB7" stroke-width="1.33333" stroke-linecap="round" stroke-linejoin="round"/>
<path d="M4.25 4C4.38807 4 4.5 3.88807 4.5 3.75C4.5 3.61193 4.38807 3.5 4.25 3.5C4.11193 3.5 4 3.61193 4 3.75C4 3.88807 4.11193 4 4.25 4Z" fill="#126DB7" stroke="#126DB7" stroke-width="1.33333" stroke-linecap="round" stroke-linejoin="round"/>
</g>
<defs>
<clipPath id="clip0_6_7557">
<rect width="12" height="12" fill="white"/>
</clipPath>
</defs>
</svg>
