<svg width="16" height="16" viewBox="0 0 16 16" fill="none" xmlns="http://www.w3.org/2000/svg">
<path d="M10.6667 4.66667C10.6667 4.04669 10.6667 3.7367 10.5985 3.48236C10.4136 2.79218 9.8745 2.25308 9.18431 2.06815C8.92998 2 8.61999 2 8.00001 2C7.38003 2 7.07004 2 6.81571 2.06815C6.12552 2.25308 5.58643 2.79218 5.40149 3.48236C5.33334 3.7367 5.33334 4.04669 5.33334 4.66667M3.46668 14H12.5333C13.2801 14 13.6534 14 13.9387 13.8547C14.1895 13.7268 14.3935 13.5229 14.5214 13.272C14.6667 12.9868 14.6667 12.6134 14.6667 11.8667V6.8C14.6667 6.05326 14.6667 5.6799 14.5214 5.39468C14.3935 5.1438 14.1895 4.93982 13.9387 4.81199C13.6534 4.66667 13.2801 4.66667 12.5333 4.66667H3.46668C2.71994 4.66667 2.34657 4.66667 2.06136 4.81199C1.81047 4.93982 1.6065 5.1438 1.47867 5.39468C1.33334 5.6799 1.33334 6.05326 1.33334 6.8V11.8667C1.33334 12.6134 1.33334 12.9868 1.47867 13.272C1.6065 13.5229 1.81047 13.7268 2.06136 13.8547C2.34657 14 2.71994 14 3.46668 14Z" stroke="white" stroke-width="1.5" stroke-linecap="round" stroke-linejoin="round"/>
</svg>
