<svg width="13" height="13" viewBox="0 0 13 13" fill="none" xmlns="http://www.w3.org/2000/svg">
<path d="M7.86627 2.99614C7.76 3.10456 7.70047 3.25032 7.70047 3.40214C7.70047 3.55396 7.76 3.69972 7.86627 3.80814L8.79427 4.73614C8.90269 4.84241 9.04845 4.90194 9.20027 4.90194C9.35209 4.90194 9.49785 4.84241 9.60627 4.73614L11.4078 2.93524C11.5934 2.74848 11.9083 2.80764 11.9779 3.06168C12.1531 3.69903 12.1432 4.3731 11.9493 5.00502C11.7555 5.63695 11.3856 6.20058 10.8831 6.62998C10.3805 7.05937 9.76611 7.33677 9.11168 7.4297C8.45724 7.52263 7.78988 7.42726 7.18767 7.15474L2.59987 11.7425C2.36913 11.9732 2.05621 12.1028 1.72996 12.1027C1.4037 12.1026 1.09082 11.973 0.860161 11.7422C0.629499 11.5115 0.499946 11.1986 0.5 10.8723C0.500054 10.5461 0.629712 10.2332 0.860451 10.0025L5.44825 5.41474C5.17573 4.81253 5.08036 4.14517 5.17329 3.49074C5.26622 2.8363 5.54362 2.22187 5.97301 1.71934C6.40241 1.21681 6.96604 0.846957 7.59797 0.653072C8.22989 0.459187 8.90396 0.449284 9.54131 0.624521C9.79535 0.694121 9.85451 1.00848 9.66833 1.19524L7.86627 2.99614Z" stroke="black" stroke-linecap="round" stroke-linejoin="round"/>
</svg>
